<svg width="19" height="27" viewBox="0 0 19 27" fill="none" xmlns="http://www.w3.org/2000/svg">
<path d="M17.0265 2.08804e-05C16.5234 2.08804e-05 16.0205 0.153128 15.6334 0.45912L0.580343 12.3673C0.232133 12.6428 0 13.0408 0 13.4693C0 13.8674 0.19354 14.357 0.580343 14.6327L15.6334 26.5409C16.4073 27.153 17.6457 27.153 18.4196 26.5409C19.1935 25.9287 19.1935 24.949 18.4196 24.3368L4.68221 13.5L18.4196 2.63265C19.1935 2.02046 19.1935 1.04075 18.4196 0.428561C18.0325 0.1531 17.5296 8.61505e-07 17.0265 8.61505e-07V2.08804e-05Z" fill="#74BF60"/>
</svg>
