<svg width="24" height="25" viewBox="0 0 24 25" fill="none" xmlns="http://www.w3.org/2000/svg">
<path fill-rule="evenodd" clip-rule="evenodd" d="M12 0C18.6232 0 24 5.52921 24 12.3391C24 19.1494 18.6227 24.6782 12 24.6782C5.37681 24.6782 0 19.149 0 12.3391C0 5.52875 5.37726 0 12 0V0ZM6.83651 17.4167C7.9603 15.7192 9.85446 14.6039 12 14.6039C14.1454 14.6039 16.0396 15.7192 17.1635 17.4167C16.0397 19.1138 14.1455 20.2293 12 20.2293C9.8546 20.2293 7.96044 19.114 6.83651 17.4167ZM12 4.44902C14.0069 4.44902 15.6364 6.12425 15.6364 8.18781C15.6364 10.2514 14.007 11.9269 12 11.9269C9.99314 11.9269 8.36364 10.2515 8.36364 8.18781C8.36364 6.12425 9.99301 4.44902 12 4.44902Z" fill="#74BF60"/>
</svg>
