<svg width="28" height="49" viewBox="0 0 28 49" fill="none" xmlns="http://www.w3.org/2000/svg">
<path d="M24.3625 6.69674e-05C23.6426 6.69674e-05 22.923 0.276998 22.3692 0.830457L0.830387 22.3692C0.332149 22.8675 0 23.5874 0 24.3625C0 25.0825 0.276928 25.9681 0.830387 26.4667L22.3692 48.0055C23.4765 49.1128 25.2485 49.1128 26.3558 48.0055C27.4631 46.8982 27.4631 45.1261 26.3558 44.0189L6.69957 24.418L26.3558 4.7618C27.4631 3.6545 27.4631 1.88248 26.3558 0.775184C25.8019 0.276946 25.0824 3.07585e-05 24.3625 3.07585e-05V6.69674e-05Z" fill="#308C37"/>
</svg>
