<svg width="28" height="22" viewBox="0 0 28 22" fill="none" xmlns="http://www.w3.org/2000/svg">
<path fill-rule="evenodd" clip-rule="evenodd" d="M27.0806 9.45823H0.000510164V21.4144C0.00389987 21.7376 0.2659 21.9982 0.588899 22H26.4924C26.8154 21.9982 27.0774 21.7376 27.0808 21.4144L27.0806 9.45823ZM0 8.27941L0.000199392 3.24954C0.00159515 2.92493 0.264196 2.66192 0.588588 2.66013H3.82511V3.68321V3.68301C3.82631 4.11869 3.99978 4.53602 4.30784 4.84407C4.6159 5.15212 5.03323 5.3256 5.4689 5.3268H7.12825C7.56392 5.3256 7.98125 5.15193 8.2893 4.84387C8.59737 4.53601 8.77104 4.11868 8.77263 3.68302V2.65994H18.3077V3.68302C18.3093 4.11869 18.483 4.53602 18.7911 4.84387C19.0991 5.15172 19.5165 5.3254 19.9521 5.3268H21.6121C22.0476 5.3254 22.4649 5.15173 22.7727 4.84367C23.0808 4.53581 23.2545 4.11848 23.2559 3.68302V2.65994L26.4918 2.66014C26.8162 2.66193 27.0788 2.92493 27.0802 3.24955V8.27921L0 8.27941ZM21.6122 0H19.9522C19.8282 0.00019938 19.7092 0.0496491 19.6219 0.13758C19.5343 0.225515 19.4853 0.344749 19.4859 0.468772V3.68416C19.4871 3.94098 19.6954 4.14875 19.9522 4.14895H21.6122C21.869 4.14855 22.0772 3.94078 22.0784 3.68416V0.468772C22.078 0.344152 22.0285 0.224718 21.9408 0.136386C21.8535 0.0496512 21.7354 0.000801646 21.6122 0.000398395L21.6122 0ZM7.12835 0H5.469C5.34558 0.000398759 5.22734 0.0492497 5.13981 0.135988C5.05207 0.224519 5.00282 0.343953 5.00223 0.468573V3.68417C5.00342 3.94119 5.21199 4.14895 5.469 4.14895H7.12835C7.38517 4.14836 7.59374 3.94099 7.59573 3.68417V0.468777C7.59513 0.344157 7.54528 0.224519 7.45715 0.136391C7.36982 0.0492581 7.25158 0.000403599 7.12835 5.45213e-06V0Z" fill="#74BF60"/>
</svg>
