<svg width="107" height="93" viewBox="0 0 107 93" fill="none" xmlns="http://www.w3.org/2000/svg">
<path fill-rule="evenodd" clip-rule="evenodd" d="M4.45809 92.0116H102.542C105.004 92.0116 107 90.0152 107 87.5528V74.1778C107 71.7154 105.004 69.7197 102.542 69.7197H4.45809C1.99566 69.7197 0 71.7156 0 74.1778V87.5528C0 90.0152 1.99583 92.0116 4.45809 92.0116ZM8.91617 78.6366H98.0831V83.0947H8.91617V78.6366Z" fill="#308C37" fill-opacity="0.71"/>
<path fill-rule="evenodd" clip-rule="evenodd" d="M20.3758 60.8014H59.0068C60.759 60.8014 62.4175 62.6803 62.4175 65.2595C62.4175 67.8389 60.759 69.7183 59.0068 69.7183H20.3741C21.193 66.8147 21.193 63.7044 20.3747 60.8014H20.3758ZM59.0068 78.6352C65.9485 78.6352 71.3337 72.5337 71.3337 65.2602C71.3337 57.9875 65.9485 51.8853 59.0068 51.8853H13.3751C10.015 51.8853 7.86258 55.4601 9.4342 58.4294L11.2486 61.8578C12.346 63.9322 12.346 66.5889 11.2486 68.6639L9.4342 72.0916C7.86264 75.0609 10.0151 78.635 13.3751 78.635L59.0068 78.6352Z" fill="#308C37" fill-opacity="0.71"/>
<path fill-rule="evenodd" clip-rule="evenodd" d="M15.9181 42.9677H54.5491C56.3013 42.9677 57.9598 44.847 57.9598 47.4265C57.9598 50.0059 56.3013 51.8846 54.5491 51.8846H15.9181C16.737 48.9816 16.737 45.8706 15.9181 42.9677V42.9677ZM54.5491 60.8014C61.4915 60.8014 66.8767 54.6992 66.8767 47.4265C66.8767 40.153 61.4915 34.0515 54.5491 34.0515H8.91735C5.55798 34.0515 3.40556 37.6256 4.97718 40.5949L6.79156 44.0233C7.88897 46.0978 7.88897 48.7545 6.79087 50.8295L4.9772 54.2571C3.40563 57.2264 5.55806 60.8012 8.91736 60.8012L54.5491 60.8014Z" fill="#308C37" fill-opacity="0.71"/>
<path fill-rule="evenodd" clip-rule="evenodd" d="M20.3758 25.1339H59.0068C60.759 25.1339 62.4175 27.0128 62.4175 29.592C62.4175 32.1713 60.759 34.0508 59.0068 34.0508H20.3741C21.193 31.1479 21.193 28.0369 20.3747 25.1339H20.3758ZM59.0068 42.9677C65.9485 42.9677 71.3337 36.8662 71.3337 29.5927C71.3337 22.32 65.9485 16.2178 59.0068 16.2178H13.3751C10.015 16.2178 7.86258 19.7926 9.4342 22.7619L11.2486 26.1903C12.346 28.2647 12.346 30.9214 11.2486 32.9964L9.4342 36.4241C7.86264 39.3934 10.0151 42.9675 13.3751 42.9675L59.0068 42.9677Z" fill="#308C37" fill-opacity="0.71"/>
<path fill-rule="evenodd" clip-rule="evenodd" d="M91.1253 66.6446L83.4022 68.7141L68.2025 11.9902L75.9249 9.92059L91.1253 66.6446ZM83.3838 3.30519C82.7462 0.927006 80.3015 -0.484525 77.9233 0.153195L61.5878 4.53124C59.2096 5.1682 57.7981 7.61282 58.4351 9.9917L75.9433 75.3295C76.5809 77.7077 79.0256 79.1193 81.4037 78.4815L97.7392 74.1035C100.118 73.4665 101.529 71.0219 100.892 68.6437L83.3838 3.30519Z" fill="#308C37" fill-opacity="0.71"/>
</svg>
