<svg width="24" height="24" viewBox="0 0 24 24" fill="none" xmlns="http://www.w3.org/2000/svg">
<path fill-rule="evenodd" clip-rule="evenodd" d="M12 0C18.6232 0 24 5.37726 24 12C24 18.6232 18.6227 24 12 24C5.37681 24 0 18.6227 0 12C0 5.37681 5.37726 0 12 0V0ZM6.83651 16.9381C7.9603 15.2873 9.85446 14.2026 12 14.2026C14.1454 14.2026 16.0396 15.2873 17.1635 16.9381C16.0397 18.5886 14.1455 19.6734 12 19.6734C9.8546 19.6734 7.96044 18.5888 6.83651 16.9381ZM12 4.32676C14.0069 4.32676 15.6364 5.95595 15.6364 7.96281C15.6364 9.96966 14.007 11.5992 12 11.5992C9.99314 11.5992 8.36364 9.9698 8.36364 7.96281C8.36364 5.95595 9.99301 4.32676 12 4.32676Z" fill="white"/>
</svg>
