<svg width="45" height="45" viewBox="0 0 45 45" fill="none" xmlns="http://www.w3.org/2000/svg">
<path d="M43.6748 26.877L38.6592 27.7289C38.3753 28.628 37.9967 29.4796 37.571 30.3314L40.5046 34.4481C40.9304 35.0633 40.8832 35.9148 40.3627 36.4354L36.3404 40.4576C35.8199 40.9782 34.9684 41.0729 34.3531 40.5996L30.2365 37.6659C29.4321 38.0917 28.533 38.4703 27.6339 38.7542L26.8295 43.7223C26.6876 44.4795 26.0723 45 25.3152 45H19.6371C18.8799 45 18.265 44.4795 18.1227 43.7223L17.2711 38.7067C16.372 38.4228 15.5205 38.0442 14.6686 37.6184L10.5519 40.5521C9.93671 40.9779 9.08517 40.9307 8.56458 40.4102L4.54236 36.3879C4.02184 35.8674 3.92712 35.0159 4.40043 34.4006L7.33408 30.284C6.90829 29.4796 6.52971 28.5805 6.24584 27.6814L1.27768 26.877C0.52051 26.7351 0 26.1198 0 25.3627V19.6845C0 18.9274 0.520518 18.3125 1.27768 18.1702L6.29333 17.3186C6.57719 16.4195 6.95577 15.5679 7.38156 14.716L4.44792 10.5994C4.02213 9.9842 4.06933 9.13265 4.58985 8.61207L8.61207 4.58985C9.13259 4.06933 9.98413 3.97461 10.5994 4.44792L14.716 7.38157C15.5204 6.95578 16.4195 6.5772 17.3186 6.29333L18.1702 1.27768C18.3121 0.520508 18.9274 8.4234e-07 19.6845 8.4234e-07H25.3626C26.1198 8.4234e-07 26.7347 0.520516 26.877 1.27768L27.6814 6.3409C28.5805 6.62476 29.4321 7.00334 30.284 7.42914L34.4006 4.49549C35.0158 4.0697 35.8673 4.1169 36.3879 4.63742L40.4102 8.65964C40.9307 9.18016 41.0254 10.0317 40.5521 10.647L37.6184 14.7636C38.0442 15.568 38.4228 16.4671 38.7067 17.3662L43.7223 18.2178C44.4795 18.3597 45 18.9749 45 19.7321L44.9997 25.3631C44.9525 26.1199 44.432 26.7351 43.6748 26.8771L43.6748 26.877ZM22.4763 14.4323C17.9811 14.4323 14.3847 18.0758 14.3847 22.5239C14.3847 27.019 18.0283 30.6154 22.4763 30.6154C26.9243 30.6154 30.5678 27.0191 30.5678 22.5239C30.5678 18.0286 26.9715 14.4323 22.4763 14.4323Z" fill="#458D4E"/>
</svg>
