<svg width="234" height="234" viewBox="0 0 234 234" fill="none" xmlns="http://www.w3.org/2000/svg">
<path d="M105.423 135.621H112.974V143.169H105.423V135.621Z" fill="#308C37"/>
<path d="M150.726 173.374H158.27V180.925H150.726V173.374Z" fill="#308C37"/>
<path d="M105.423 82.7722H112.974V90.3235H105.423V82.7722Z" fill="#308C37"/>
<path d="M173.373 112.97H180.929V120.521H173.373V112.97Z" fill="#308C37"/>
<path d="M45.0146 112.97H52.5626V120.521H45.0146V112.97Z" fill="#308C37"/>
<path d="M82.7718 150.722H45.0186V188.473H82.7718V150.722ZM75.2188 180.924H52.5665V158.272H75.2188V180.924Z" fill="#308C37"/>
<path d="M112.969 105.424H120.52V120.528H112.969V105.424Z" fill="#308C37"/>
<path d="M45.0146 82.7723H82.7679V45.019H45.0146V82.7723ZM52.5626 52.567H75.2149V75.2193H52.5626V52.567Z" fill="#308C37"/>
<path d="M165.822 180.928H173.37V188.473H165.822V180.928Z" fill="#308C37"/>
<path opacity="0.9" d="M116.747 2.86102e-06C52.2648 2.86102e-06 0 52.269 0 116.747C0 181.229 52.269 233.493 116.747 233.493C181.224 233.493 233.493 181.224 233.493 116.747C233.493 52.269 181.224 0 116.747 0V2.86102e-06ZM97.8743 37.4687H105.422V52.5697H112.974V45.0217H135.622V60.1261H128.075V52.5747H112.974V60.1261H97.8726L97.8743 37.4687ZM135.623 67.6689V90.3212H128.075V67.6689H135.623ZM37.4666 37.4687H90.3199V90.3221L37.4666 90.3204V37.4687ZM90.3199 196.025H37.4666V143.171H90.3199V196.025ZM143.173 196.025H105.42V180.924H97.8721V158.268H105.42V143.167H97.8721V135.619H82.7678V128.068H67.6668V135.624H60.1189V128.068H67.6668V120.523H82.7678V112.972H67.6668V105.424H52.5624V112.972H67.6634V120.523H52.5624V128.068H45.0145V120.523H37.4666V105.419H52.5675V97.8709H75.2198V105.419H82.7678V97.8709H90.3191V105.419H82.7678V112.967H90.3191V120.518H82.7678V128.063H105.42V112.962H97.8721V75.2165H112.973V82.7644H120.524V105.417H128.072V135.617H120.524V143.165H112.973V158.266H120.524V150.721H135.625V143.17H158.278V150.721H143.177V158.266H120.524V165.817H105.42V180.922H112.971V173.37H120.523V180.922H112.971V188.466H143.177V196.024L143.173 196.025ZM188.476 196.025H158.276V188.468H143.175V173.371H128.071V165.823H143.175V173.367H150.726V158.266H158.271V173.367H173.372V158.266H165.824V150.722H173.372V158.266H180.928V188.467H188.473V196.025H188.476ZM196.024 112.969H188.476V135.622H196.024V143.17H188.476V150.721H196.024V158.265H188.476V150.721H180.932V135.617H173.375V143.164H165.827V135.617H158.279V128.065H150.735V135.617H143.183V128.065H135.632V112.964H143.183V105.416H135.632V97.8683H158.284V112.969H173.385V97.8683H196.038L196.036 112.969H196.024ZM196.024 90.3204H143.175V37.467H196.024V90.3204Z" fill="#308C37"/>
<path d="M150.726 112.97H158.27V120.521H150.726V112.97Z" fill="#308C37"/>
<path d="M165.822 120.525H173.37V135.626H165.822V120.525Z" fill="#308C37"/>
<path d="M188.478 45.0156H150.728V82.7689H188.478V45.0156ZM180.926 75.2159H158.278V52.5636H180.926V75.2159Z" fill="#308C37"/>
</svg>
