<svg width="28" height="23" viewBox="0 0 28 23" fill="none" xmlns="http://www.w3.org/2000/svg">
<path fill-rule="evenodd" clip-rule="evenodd" d="M27.0806 9.75381H0.000510164V22.0478C0.00389987 22.3801 0.2659 22.6481 0.588899 22.65H26.4924C26.8154 22.6481 27.0774 22.3802 27.0808 22.0478L27.0806 9.75381ZM0 8.54168L0.000199392 3.36968C0.00159515 3.0359 0.264196 2.76546 0.588588 2.76362H3.82511V3.81561V3.81541C3.82631 4.26339 3.99978 4.69251 4.30784 5.00927C4.6159 5.32603 5.03323 5.50441 5.4689 5.50564H7.12825C7.56392 5.50441 7.98125 5.32583 8.2893 5.00907C8.59737 4.69251 8.77104 4.26339 8.77263 3.81541V2.76342H18.3077V3.81541C18.3093 4.2634 18.483 4.69252 18.7911 5.00907C19.0991 5.32562 19.5165 5.50421 19.9521 5.50564H21.6121C22.0476 5.5042 22.4649 5.32563 22.7727 5.00886C23.0808 4.6923 23.2545 4.26318 23.2559 3.81542V2.76342L26.4918 2.76363C26.8162 2.76547 27.0788 3.0359 27.0802 3.36969V8.54148L0 8.54168ZM21.6122 0.0283203H19.9522C19.8282 0.0285253 19.7092 0.0793724 19.6219 0.169788C19.5343 0.260207 19.4853 0.382811 19.4859 0.510338V3.81659C19.4871 4.08066 19.6954 4.2943 19.9522 4.29451H21.6122C21.869 4.2941 22.0772 4.08046 22.0784 3.81659V0.510338C22.078 0.382197 22.0285 0.259389 21.9408 0.16856C21.8535 0.0793745 21.7354 0.0291446 21.6122 0.02873L21.6122 0.0283203ZM7.12835 0.0283203H5.469C5.34558 0.0287303 5.22734 0.0789617 5.13981 0.16815C5.05207 0.259184 5.00282 0.381992 5.00223 0.510134V3.81659C5.00342 4.08088 5.21199 4.29451 5.469 4.29451H7.12835C7.38517 4.2939 7.59374 4.08067 7.59573 3.81659V0.510344C7.59513 0.382202 7.54528 0.259184 7.45715 0.168565C7.36982 0.0789703 7.25158 0.0287353 7.12835 0.0283259V0.0283203Z" fill="#74BF60"/>
</svg>
