<svg width="32" height="34" viewBox="0 0 32 34" fill="none" xmlns="http://www.w3.org/2000/svg">
<g clip-path="url(#clip0_5_255)">
<path d="M15.6659 0.990967C9.15098 0.990967 3.85449 6.59351 3.85449 13.4849C3.85449 20.3763 9.15098 25.9788 15.6659 25.9788C22.1808 25.9788 27.4773 20.3763 27.4773 13.4849C27.4773 6.59351 22.1808 0.990967 15.6659 0.990967ZM20.6889 11.6963L15.5913 17.483C15.293 17.825 14.8951 18.009 14.4724 18.009C14.0497 18.009 13.627 17.8248 13.3534 17.483L10.6429 14.4318C10.071 13.7742 10.0958 12.7484 10.7175 12.1435C11.3391 11.5385 12.3089 11.5648 12.8808 12.2223L14.4474 14.0109L18.4261 9.48674C18.998 8.82916 19.9677 8.80291 20.5894 9.40784C21.236 10.0128 21.2608 11.0388 20.6889 11.6963L20.6889 11.6963Z" fill="#74BF60"/>
</g>
<defs>
<clipPath id="clip0_5_255">
<rect width="31.0827" height="32.8788" fill="white" transform="translate(0.125 0.333374)"/>
</clipPath>
</defs>
</svg>
