<svg width="31" height="31" viewBox="0 0 31 31" fill="none" xmlns="http://www.w3.org/2000/svg">
<path d="M15.4997 0.619995C9.00213 0.619995 3.71973 5.9024 3.71973 12.4C3.71973 18.8976 9.00213 24.18 15.4997 24.18C21.9973 24.18 27.2797 18.8976 27.2797 12.4C27.2797 5.9024 21.9973 0.619995 15.4997 0.619995ZM20.5093 10.7136L15.4253 16.1696C15.1278 16.492 14.7309 16.6656 14.3094 16.6656C13.8878 16.6656 13.4662 16.4919 13.1934 16.1696L10.4901 13.2928C9.91973 12.6728 9.94448 11.7056 10.5645 11.1352C11.1845 10.5648 12.1517 10.5896 12.722 11.2096L14.2845 12.8959L18.2526 8.63029C18.8229 8.01029 19.7901 7.98554 20.4101 8.55591C21.055 9.12626 21.0798 10.0936 20.5094 10.7136L20.5093 10.7136Z" fill="#98D588"/>
</svg>
