<svg width="31" height="31" viewBox="0 0 31 31" fill="none" xmlns="http://www.w3.org/2000/svg">
<g clip-path="url(#clip0_5_268)">
<path d="M15.4997 0.658081C9.00213 0.658081 3.71973 5.92108 3.71973 12.3948C3.71973 18.8685 9.00213 24.1315 15.4997 24.1315C21.9973 24.1315 27.2797 18.8685 27.2797 12.3948C27.2797 5.92108 21.9973 0.658081 15.4997 0.658081ZM20.5093 10.7146L15.4253 16.1506C15.1278 16.4718 14.7309 16.6447 14.3094 16.6447C13.8878 16.6447 13.4662 16.4717 13.1934 16.1506L10.4901 13.2843C9.91973 12.6666 9.94448 11.7029 10.5645 11.1347C11.1845 10.5664 12.1517 10.5911 12.722 11.2088L14.2845 12.8889L18.2526 8.63896C18.8229 8.02123 19.7901 7.99657 20.4101 8.56484C21.055 9.1331 21.0798 10.0969 20.5094 10.7147L20.5093 10.7146Z" fill="#74BF60"/>
</g>
<defs>
<clipPath id="clip0_5_268">
<rect width="31" height="30.8861" fill="white" transform="translate(0 0.0404053)"/>
</clipPath>
</defs>
</svg>
