<svg width="31" height="31" viewBox="0 0 31 31" fill="none" xmlns="http://www.w3.org/2000/svg">
<path d="M15.4997 0.620117C9.00213 0.620117 3.71973 5.90252 3.71973 12.4001C3.71973 18.8977 9.00213 24.1801 15.4997 24.1801C21.9973 24.1801 27.2797 18.8977 27.2797 12.4001C27.2797 5.90252 21.9973 0.620117 15.4997 0.620117ZM20.5093 10.7137L15.4253 16.1697C15.1278 16.4922 14.7309 16.6657 14.3094 16.6657C13.8878 16.6657 13.4662 16.492 13.1934 16.1697L10.4901 13.2929C9.91973 12.6729 9.94448 11.7057 10.5645 11.1353C11.1845 10.565 12.1517 10.5897 12.722 11.2097L14.2845 12.896L18.2526 8.63042C18.8229 8.01042 19.7901 7.98566 20.4101 8.55603C21.055 9.12639 21.0798 10.0938 20.5094 10.7138L20.5093 10.7137Z" fill="#98D588"/>
</svg>
