<svg width="311" height="311" viewBox="0 0 311 311" fill="none" xmlns="http://www.w3.org/2000/svg">
<path d="M62.201 103.665C64.9501 103.665 67.588 102.574 69.5318 100.63C71.4755 98.6861 72.5671 96.0484 72.5671 93.2991V51.833H114.035C117.738 51.833 121.161 49.8563 123.013 46.6491C124.864 43.4419 124.864 39.4903 123.013 36.283C121.161 33.0757 117.739 31.0991 114.035 31.0991H72.5671C67.0709 31.1043 61.8003 33.291 57.9128 37.1787C54.027 41.0645 51.8403 46.335 51.835 51.833V93.2991C51.835 96.0481 52.9266 98.6861 54.8703 100.63C56.8141 102.574 59.4518 103.665 62.201 103.665V103.665Z" fill="#458D4E"/>
<path d="M238.435 31.1001H196.967C193.264 31.1001 189.841 33.0768 187.989 36.284C186.138 39.4912 186.138 43.4428 187.989 46.6501C189.841 49.8574 193.264 51.834 196.967 51.834H238.433L238.435 93.3001C238.435 97.0036 240.41 100.426 243.617 102.278C246.824 104.13 250.778 104.13 253.985 102.278C257.192 100.426 259.167 97.0037 259.167 93.3001V51.834C259.162 46.336 256.975 41.0672 253.087 37.1797C249.202 33.2922 243.931 31.1072 238.435 31.1001H238.435Z" fill="#458D4E"/>
<path d="M72.5652 217.7H114.033C117.737 217.7 121.159 215.723 123.011 212.516C124.862 209.309 124.862 205.357 123.011 202.15C121.159 198.943 117.737 196.966 114.033 196.966H72.5652V155.5C72.5652 151.797 70.5902 148.374 67.383 146.522C64.1758 144.671 60.2225 144.671 57.0152 146.522C53.8079 148.374 51.833 151.796 51.833 155.5V196.966C51.8382 202.464 54.0249 207.735 57.9108 211.62C61.7983 215.508 67.0689 217.695 72.5652 217.7V217.7Z" fill="#458D4E"/>
<path d="M248.8 145.135C246.051 145.133 243.413 146.225 241.469 148.17C239.524 150.114 238.432 152.752 238.434 155.501V196.967H196.966C193.263 196.967 189.84 198.944 187.988 202.151C186.137 205.358 186.137 209.31 187.988 212.517C189.84 215.724 193.263 217.701 196.966 217.701H238.434C243.93 217.694 249.201 215.509 253.087 211.621C256.974 207.734 259.161 202.465 259.166 196.967V155.501C259.168 152.752 258.076 150.114 256.131 148.17C254.187 146.225 251.549 145.133 248.8 145.135Z" fill="#458D4E"/>
<path d="M82.9346 124.4C82.9346 127.149 84.0262 129.787 85.9699 131.731C87.9137 133.674 90.5514 134.766 93.3006 134.766H217.701C221.404 134.766 224.827 132.791 226.678 129.584C228.53 126.377 228.53 122.423 226.678 119.216C224.827 116.009 221.404 114.034 217.701 114.034H93.3006C90.5516 114.034 87.9137 115.126 85.9699 117.069C84.0262 119.013 82.9346 121.651 82.9346 124.4V124.4Z" fill="#458D4E"/>
</svg>
