<svg width="23" height="28" viewBox="0 0 23 28" fill="none" xmlns="http://www.w3.org/2000/svg">
<path fill-rule="evenodd" clip-rule="evenodd" d="M10.954 17.375C12.5605 17.375 13.875 15.8563 13.875 14C13.875 12.1437 12.5605 10.625 10.954 10.625C9.34735 10.625 8.0329 12.1438 8.0329 14C8.0329 15.8563 9.34735 17.375 10.954 17.375ZM4.96576 6.575C5.98816 5.5625 7.15656 4.71875 8.47101 4.38125L9.63947 0.5H12.5605L13.7289 4.38125C15.0434 4.8875 16.2118 5.5625 17.2341 6.575L20.7394 5.73125L22.2 8.76875L19.8631 11.8062C20.0092 12.4812 20.0092 13.325 20.0092 14C20.0092 14.675 19.8631 15.5187 19.8631 16.1938L22.2 19.2313L20.7394 22.2688L17.2341 21.425C16.2118 22.4375 15.0434 23.2813 13.7289 23.6188L12.5605 27.5H9.63947L8.47101 23.6187C7.15656 23.1125 5.9881 22.4375 4.96576 21.425L1.46051 22.2687L0 19.2312L2.33685 16.1937C2.1908 15.5187 2.1908 14.675 2.1908 14C2.1908 13.325 2.33685 12.4812 2.33685 11.8062L0 8.76875L1.46051 5.73125L4.96576 6.575Z" fill="white"/>
</svg>
