<svg width="22" height="24" viewBox="0 0 22 24" fill="none" xmlns="http://www.w3.org/2000/svg">
<path d="M20.8553 3.00004H7.58375C6.95164 3.00004 6.31985 3.14989 6.31985 2.70011V1.49991C6.31985 1.04989 6.31985 0 5.21403 0H1.10607C0.158089 0 0 0.900016 0 1.35005V22.5001C0 22.9501 -5.96046e-07 24 1.26391 24H20.697C21.9609 24 21.9609 23.25 21.9609 22.5001L21.9612 4.3501C22.1193 3.74998 21.8033 3.00004 20.8553 3.00004ZM8.68982 16.7999L6.32003 19.0501C6.16195 19.2001 5.84603 19.35 5.53008 19.35C5.21413 19.35 4.89797 19.1999 4.74013 19.0501L2.84412 17.25C2.37012 16.7999 2.37012 16.2001 2.68603 15.8999C3.16003 15.4499 3.79185 15.4499 4.10803 15.8999L5.37194 17.0999L7.10986 15.4499C7.58387 14.9999 8.21568 14.9999 8.53186 15.4499C9.00586 15.9001 9.00598 16.5 8.68982 16.7999ZM8.68982 7.79977L6.32003 10.0499C6.00412 10.1998 5.84603 10.3498 5.53008 10.3498C5.21392 10.3498 4.89797 10.3498 4.74013 10.0499L2.84412 8.24981C2.37012 7.94987 2.37012 7.34979 2.68603 6.89975C3.16003 6.44973 3.79185 6.44973 4.10803 6.89975L5.37194 8.09971L7.10986 6.44972C7.58387 5.99993 8.21593 5.99993 8.6897 6.44972C9.00587 6.89974 9.00599 7.49982 8.68982 7.79977ZM18.8015 19.5H12.1657C11.5336 19.5 11.0599 19.3499 11.0599 18.75C11.0599 18.1499 11.5339 18.0001 12.1657 18.0001H18.8015C19.4336 18.0001 19.9073 18.1501 19.9073 18.75C19.9075 19.3499 19.4335 19.5 18.8015 19.5ZM18.8015 10.4999H12.1657C11.5336 10.4999 11.0599 10.3498 11.0599 9.74989C11.0599 9.14976 11.5339 8.99991 12.1657 8.99991H18.8015C19.4336 8.99991 19.9073 9.14999 19.9073 9.74989C19.9075 10.3498 19.4335 10.4999 18.8015 10.4999Z" fill="#74BF60"/>
</svg>
