<svg width="22" height="25" viewBox="0 0 22 25" fill="none" xmlns="http://www.w3.org/2000/svg">
<path d="M20.8553 3.08481H7.58375C6.95164 3.08481 6.31985 3.2389 6.31985 2.7764V1.54229C6.31985 1.07956 6.31985 0 5.21403 0H1.10607C0.158089 0 0 0.925448 0 1.3882V23.1359C0 23.5986 -5.91934e-07 24.6782 1.26391 24.6782H20.697C21.9609 24.6782 21.9609 23.907 21.9609 23.1359L21.9612 4.47303C22.1193 3.85594 21.8031 3.08483 20.8551 3.08483L20.8553 3.08481ZM8.68982 17.2746L6.32003 19.5884C6.16195 19.7427 5.84603 19.8968 5.53008 19.8968C5.21413 19.8968 4.89797 19.7424 4.74013 19.5884L2.84412 17.7374C2.37012 17.2747 2.37012 16.6579 2.68603 16.3492C3.16003 15.8865 3.79185 15.8865 4.10803 16.3492L5.37194 17.5831L7.10986 15.8864C7.58387 15.4237 8.21568 15.4237 8.53186 15.8864C9.00586 16.3494 9.00586 16.9662 8.6897 17.2746H8.68982ZM8.68982 8.02017L6.32003 10.3339C6.00412 10.488 5.84603 10.6423 5.53008 10.6423C5.21392 10.6423 4.89797 10.6423 4.74013 10.3339L2.84412 8.48292C2.37012 8.17451 2.37012 7.55748 2.68603 7.09472C3.16003 6.63199 3.79185 6.63199 4.10803 7.09472L5.37194 8.32859L7.10986 6.63197C7.58387 6.16947 8.21593 6.16947 8.6897 6.63197C9.00587 7.0947 9.00587 7.71175 8.6897 8.02017H8.68982ZM18.8015 20.051H12.1657C11.5336 20.051 11.0599 19.8967 11.0599 19.2799C11.0599 18.6628 11.5339 18.5087 12.1657 18.5087H18.8015C19.4336 18.5087 19.9073 18.663 19.9073 19.2799C19.9075 19.8967 19.4335 20.051 18.8015 20.051ZM18.8015 10.7966H12.1657C11.5336 10.7966 11.0599 10.6422 11.0599 10.0254C11.0599 9.40831 11.5339 9.25422 12.1657 9.25422H18.8015C19.4336 9.25422 19.9073 9.40855 19.9073 10.0254C19.9075 10.6422 19.4335 10.7966 18.8015 10.7966Z" fill="white"/>
</svg>
