<svg width="22" height="23" viewBox="0 0 22 23" fill="none" xmlns="http://www.w3.org/2000/svg">
<path d="M20.8553 3.12074H7.58375C6.95164 3.12074 6.31985 3.25997 6.31985 2.84206V1.72695C6.31985 1.30883 6.31985 0.333374 5.21403 0.333374H1.10607C0.158089 0.333374 0 1.16959 0 1.58772V21.2384C0 21.6565 -5.96046e-07 22.632 1.26391 22.632H20.697C21.9609 22.632 21.9609 21.9352 21.9609 21.2384L21.9612 4.37509C22.1193 3.81751 21.8033 3.12074 20.8553 3.12074ZM8.68982 15.9423L6.32003 18.0329C6.16195 18.1724 5.84603 18.3116 5.53008 18.3116C5.21413 18.3116 4.89797 18.1722 4.74013 18.0329L2.84412 16.3605C2.37012 15.9423 2.37012 15.385 2.68603 15.1061C3.16003 14.688 3.79185 14.688 4.10803 15.1061L5.37194 16.221L7.10986 14.688C7.58387 14.2699 8.21568 14.2699 8.53186 14.688C9.00586 15.1063 9.00598 15.6636 8.68982 15.9423ZM8.68982 7.58021L6.32003 9.67082C6.00412 9.81005 5.84603 9.94949 5.53008 9.94949C5.21392 9.94949 4.89797 9.94949 4.74013 9.67082L2.84412 7.99834C2.37012 7.71967 2.37012 7.16213 2.68603 6.74399C3.16003 6.32588 3.79185 6.32588 4.10803 6.74399L5.37194 7.85889L7.10986 6.32586C7.58387 5.90796 8.21593 5.90796 8.6897 6.32586C9.00587 6.74398 9.00599 7.30152 8.68982 7.58021ZM18.8015 18.451H12.1657C11.5336 18.451 11.0599 18.3116 11.0599 17.7542C11.0599 17.1966 11.5339 17.0574 12.1657 17.0574H18.8015C19.4336 17.0574 19.9073 17.1968 19.9073 17.7542C19.9075 18.3116 19.4335 18.451 18.8015 18.451ZM18.8015 10.0889H12.1657C11.5336 10.0889 11.0599 9.94945 11.0599 9.39208C11.0599 8.8345 11.5339 8.69526 12.1657 8.69526H18.8015C19.4336 8.69526 19.9073 8.83471 19.9073 9.39208C19.9075 9.94945 19.4335 10.0889 18.8015 10.0889Z" fill="#F1F9FF"/>
</svg>
